<?xml version="1.0" encoding="UTF-8"?>
<svg id="Capa_1" data-name="Capa 1" xmlns="http://www.w3.org/2000/svg" viewBox="0 0 292.47 292.47">
  <defs>
    <style>
      .cls-1 {
        fill: #8b1812;
      }

      .cls-2 {
        fill: #ededed;
      }
    </style>
  </defs>
  <path class="cls-1" d="m115.17,134.61c0,6.79-.02,13.28,0,19.78.06,14.2,6.26,24.53,18.92,29.81,4.7,1.96,9.99,2.2,15.26,1.14,6.52-1.31,11.8-4.51,15.88-9.83,2.25-2.93,4.18-6.06,4.83-9.87.28-1.63,1-2.77,2.74-3.54,7.94-3.54,15.88-7.11,23.61-11.12,7.19-3.74,14.41-7.43,21.47-11.45,7.99-4.55,15.81-9.37,23.47-14.49,9.65-6.46,18.86-13.55,27.91-20.85,1.07-.87,2.19-1.67,3.29-2.51.93,1.41,1.08,3.06,1.37,4.68.72,4,1.49,7.99,2.34,12.5,2.1-2.46,3.16-4.97,5.59-6.26,2.86-1.52,5.87-1.2,8.41,1.21,1.87,1.76,2.57,5.39,1.41,7.95-2.28,5.03-5.92,9.05-9.38,13.18-7.29,8.71-15.56,16.39-24.13,23.7-4.83,4.12-10.03,7.76-15.03,11.67-7.54,5.9-15.55,11.08-23.64,16.09-8.88,5.5-18.09,10.39-27.56,14.79-5.59,2.59-11.27,4.86-16.92,7.25-.4.17-.85.27-1.36-.33,2.7-2.47,5.47-4.86,8.1-7.42,6.92-6.75,11.71-14.98,14.9-24.18.67-1.93.78-4.13,1.3-6.18.22-.88.04-2.04-.71-2.55-.67-.45-1.49.22-2.21.56-7.54,3.6-14.83,7.75-22.53,11.01-3.24,1.37-5.09,4.58-7.88,6.61-8.68,6.35-18.31,8.8-28.55,6.35-12.24-2.93-20.71-11.03-25.43-23.1-1.49-3.83-2.37-7.92-2.52-12.07-.08-2.18-1.03-2.43-2.53-1.62-5.95,3.24-11.85,6.58-17.77,9.88-.89.5-.68,1.4-.76,2.22-.47,4.77,1.37,9.04,2.77,13.37,2.3,7.12,6.26,13.34,10.92,18.93,4.41,5.29,9.5,9.96,15.93,12.65,1.48.62,2.72,1.64,4.25,2.26,7.59,3.06,15.49,3.95,23.54,4.05.24,0,.48.08,1.22.2-3.82,2.14-7.72,2.65-11.37,3.27-3.84.66-7.72,1.31-11.59,1.87-6.33.92-12.71,1.61-18.98,2.83-8.53,1.66-17.1,3.31-25.44,5.75-4.99,1.46-10.1,2.84-14.87,5.18-3.18,1.56-6.6,2.59-9.88,3.95-1.22.5-1.65-.47-2.2-1.08-3.98-4.37-8.13-8.6-11.51-13.52-2.2-3.21-4.48-6.38-6.5-9.71-.79-1.31-1.17-1.36-2.07-.29-2.41,2.89-5.09,5.58-7.25,8.65-3.61,5.15-7.41,10.18-10.32,15.85-1.68,3.27-6.1,4.5-9.3,2.75-2.88-1.57-4.41-6.66-2.89-9.74,3.15-6.38,7.17-12.19,11.3-17.9,8.39-11.58,18.2-21.87,28.39-31.68,7.62-7.35,15.64-14.29,24.13-20.67,8.97-6.74,17.99-13.37,27.62-19.03,6.34-3.72,12.98-6.89,19.52-10.24.85-.44,1.87-.5,2.72-.71Z"/>
  <path class="cls-2" d="m274.8,162.41c.45,4.49-.15,8.28-.47,12.1-.4,4.7-1.76,9.17-2.71,13.71-.88,4.19-2.51,8.25-4.15,12.21-2.55,6.15-5.23,12.25-8.79,17.89-4.11,6.49-8.23,12.92-13.35,18.67-5.24,5.89-10.76,11.4-16.9,16.29-9.01,7.18-18.65,13.09-29.2,17.58-6.84,2.91-13.8,5.35-20.93,7.14-12.28,3.1-24.85,4.28-37.46,3.51-6.88-.42-13.77-1.21-20.6-2.71-9.24-2.02-18.2-4.86-26.9-8.51-7.68-3.22-15.18-6.95-21.95-12.03-.49-.37-.92-.83-1.35-1.23,5.03-2.82,10.43-4.3,15.68-6.02,5.62-1.84,11.35-3.48,17.21-4.53,5.41-.97,10.72-2.58,16.14-3.46,7.61-1.23,15.07-3.29,22.71-4.38,3.57-.51,7.05-1.72,10.54-2.74,5.63-1.64,11.29-3.21,16.83-5.12,4.1-1.42,8.07-3.27,12.06-5.03,6.49-2.88,13.04-5.66,19.4-8.83,5.66-2.82,11.12-6.07,16.63-9.21,7.91-4.51,15.55-9.5,22.93-14.86,6.43-4.68,12.65-9.69,18.66-14.99,5.4-4.77,10.52-9.8,16-15.45Z"/>
  <path class="cls-2" d="m18.37,144.48c-1.18-5.85-.75-11.38-.61-16.91.15-6.1.91-12.14,2.12-18.08,1.08-5.29,2.57-10.51,4.24-15.63,1.61-4.95,3.35-9.92,5.63-14.56,2.72-5.51,5.6-10.94,8.86-16.19,3.61-5.81,7.63-11.24,12.08-16.3,6.97-7.94,14.59-15.14,23.2-21.24,7.38-5.23,15.16-9.6,23.32-13.23,5.37-2.39,11.02-4.09,16.54-6.13,2.2-.81,1.8.78,1.8,2.01-.03,22.11-.06,44.22-.08,66.33,0,2.04-.15,4.11.1,6.12.28,2.29-.72,3.5-2.6,4.17-6.69,2.38-13.14,5.38-19.53,8.47-6.07,2.94-12.16,5.87-18.01,9.35-4.8,2.85-9.69,5.57-14.44,8.5-5.3,3.28-10.37,6.98-15.45,10.64-5.75,4.14-11.29,8.58-16.65,13.24-3.48,3.03-6.88,6.16-10.52,9.44Z"/>
  <path class="cls-1" d="m174.37,112.69c-1.02-5.64-.32-11.21-.55-16.73-.05-1.06.81-1.09,1.39-1.42,3.56-2.04,7.52-3.15,11.13-5.12,4.52-2.47,9.37-4.29,13.92-6.71,6.69-3.55,13.3-7.26,19.83-11.12,7.93-4.69,15.58-9.82,22.85-15.6,3.62-2.88,7.42-5.59,10.75-8.76,6.31-6.02,12.87-11.8,18.34-18.74,2.62-3.32,5.16-6.67,7.67-10.07,1.52-2.05,4.08-2.86,6.57-2.07,2.38.76,4.15,2.2,4.95,5.1,1.07,3.9-.75,6.69-2.69,9.32-3.83,5.2-8.04,10.06-12.39,14.84-5.32,5.85-10.94,11.28-16.84,16.44-1.67,1.46-1.76,3-.6,4.71,3.2,4.72,5.72,9.84,8.4,14.87.8,1.51,1.18,2.38-.71,4.01-4.8,4.14-9.5,8.42-14.49,12.32-5.63,4.4-11.3,8.77-17.07,12.97-5.49,3.99-11.08,7.84-16.75,11.56-4.62,3.03-9.36,5.86-14.15,8.59-5.48,3.13-11.02,6.15-16.62,9.04-4.04,2.09-8.22,3.89-12.34,5.81-.86.4-1.15-.03-1.15-.86-.01-4.83,0-9.66-.04-14.49,0-1.01.69-1.21,1.34-1.46,6.73-2.59,13.01-6.16,19.26-9.78,4.56-2.64,5.83-10.2,2.73-14.58-1.48-2.09-3.19-1.87-4.94-1.02-5.91,2.88-11.76,5.89-17.8,8.94Z"/>
  <path class="cls-2" d="m173.82,40.8c0-10.49.06-20.99-.04-31.48-.02-2.39.54-2.54,2.76-2.2,7.53,1.17,14.67,3.72,21.58,6.71,7.14,3.08,13.8,7.27,20.16,11.89,2.8,2.03,3.27,1.88,5.72-.78,2.35-2.54,4.68-5.12,7.15-7.53,2.55-2.48,6.53-2.43,9.2-.21,2.92,2.43,2.97,7.25,1.59,9.54-2.41,4-5.72,7.3-8.98,10.47-4.85,4.73-10.08,9.1-15.45,13.21-8.29,6.36-17.1,11.94-26.35,16.7-5.13,2.64-10.46,4.85-15.63,7.4-1.56.77-1.63.08-1.63-1.14-.03-6.59-.07-13.18-.1-19.78-.01-4.27,0-8.54,0-12.82Z"/>
  <path class="cls-1" d="m115.35,111.11c.12,7.29-.04,6.96-6.28,10.2-9.59,4.99-19.28,9.78-28.53,15.5-6.52,4.04-12.9,8.3-19.2,12.64-6.64,4.56-12.84,9.8-19.07,14.97-6.27,5.2-12.19,10.78-18.02,16.45-4.46,4.33-8.34,9.27-12,14.37-1.63,2.27-5.21,3.45-7.41,2.55-2.2-.9-4.56-3.28-4.59-6.67-.03-3.25,1.45-5.42,3.09-7.66,7.08-9.61,15.2-18.24,24.15-25.96,8.3-7.16,16.88-13.98,25.9-20.15,6.75-4.61,13.52-9.23,20.52-13.43,6.4-3.84,13-7.34,19.61-10.8,6.24-3.26,12.64-6.16,18.93-9.3.86-.43,1.73-.87,2.52-.5,1.06.5.37,1.63.38,2.49.02,1.76,0,3.53,0,5.29Z"/>
</svg>